<svg xmlns="http://www.w3.org/2000/svg" xmlns:xlink= "http://www.w3.org/1999/xlink" viewBox="0 0 1000 1000"><rect x="0" y="0" width="1000" height="1000" fill="#000000" /><g stroke="#ff6699" stroke-width="1.42" stroke-opacity="0.69"><polygon points="620,544 576,675 424,669 393,537 509,469 " fill="#c0392b" opacity="0.69" /><polygon points="375,316 298,454 393,537 509,469 510,340 " fill="#1abc9c" opacity="0.69" /><polygon points="640,320 714,465 620,544 509,469 510,340 " fill="#f39c12" opacity="0.69" /><polygon points="343,700 424,669 393,537 298,454 247,541 " fill="#2980b9" opacity="0.69" /><polygon points="643,711 576,675 620,544 714,465 750,555 " fill="#2ecc71" opacity="0.69" /><polygon points="640,320 602,271 398,268 375,316 510,340 " fill="#8e44ad" opacity="0.69" /><polygon points="643,711 576,675 424,669 343,700 485,735 " fill="#9b59b6" opacity="0.69" /><polygon points="306,428 398,268 375,316 298,454 247,541 " fill="#f1c40f" opacity="0.69" /><polygon points="677,437 602,271 640,320 714,465 750,555 " fill="#ffc300" opacity="0.69" /><polygon points="306,428 247,541 343,700 485,735 482,556 " fill="#27ae60" opacity="0.69" /><polygon points="677,437 750,555 643,711 485,735 482,556 " fill="#3498db" opacity="0.69" /><polygon points="677,437 602,271 398,268 306,428 482,556 " fill="#e74c3c" opacity="0.69" /></g></svg>