<svg xmlns="http://www.w3.org/2000/svg" xmlns:xlink= "http://www.w3.org/1999/xlink" viewBox="0 0 1000 1000"><rect x="0" y="0" width="1000" height="1000" fill="#000000" /><g stroke="#ff6699" stroke-width="1.42" stroke-opacity="0.69"><polygon points="611,628 389,619 508,451 " fill="#f39c12" opacity="0.77" /><polygon points="389,619 317,408 508,451 " fill="#d35400" opacity="0.77" /><polygon points="611,628 696,422 508,451 " fill="#34495e" opacity="0.77" /><polygon points="510,274 317,408 508,451 " fill="#bdc3c7" opacity="0.77" /><polygon points="510,274 696,422 508,451 " fill="#2c3e50" opacity="0.77" /><polygon points="611,628 389,619 488,750 " fill="#8e44ad" opacity="0.77" /><polygon points="389,619 268,591 317,408 " fill="#16a085" opacity="0.77" /><polygon points="611,628 720,610 696,422 " fill="#1abc9c" opacity="0.77" /><polygon points="389,619 268,591 488,750 " fill="#7f8c8d" opacity="0.77" /><polygon points="350,327 510,274 317,408 " fill="#f1c40f" opacity="0.77" /><polygon points="611,628 720,610 488,750 " fill="#c0392b" opacity="0.77" /><polygon points="650,336 510,274 696,422 " fill="#3498db" opacity="0.77" /><polygon points="350,327 268,591 317,408 " fill="#2980b9" opacity="0.77" /><polygon points="650,336 720,610 696,422 " fill="#9b59b6" opacity="0.77" /><polygon points="650,336 350,327 510,274 " fill="#ffc300" opacity="0.77" /><polygon points="268,591 485,579 488,750 " fill="#f0e68c" opacity="0.77" /><polygon points="720,610 485,579 488,750 " fill="#f5b041" opacity="0.77" /><polygon points="350,327 268,591 485,579 " fill="#27ae60" opacity="0.77" /><polygon points="650,336 720,610 485,579 " fill="#2ecc71" opacity="0.77" /><polygon points="650,336 350,327 485,579 " fill="#e74c3c" opacity="0.77" /></g></svg>